# xmcd CD database file
#
# Track frame offsets:
#	150
#	16113
#	31769
#	42721
#	64519
#	77430
#	95764
#	111847
#	131247
#	150131
#	168353
#	189565
#	204627
#	220678
#	231998
#	251221
#	271559
#	283811
#	307082
#	333315
#
# Disc length: 4698 seconds
#
# Revision: 0
# Processed by: cddbd v1.5.1PL0 Copyright (c) Steve Scherf et al.
# Submitted via: CDex 1.50beta10
#
DISCID=16125814
DTITLE=Varios - Divas - Brazil
DYEAR=2005
DGENRE=Brazilian
TTITLE0=Marisa Monte/Na Estrada
TTITLE1=Bebel Gilberto/Bananeira
TTITLE2=Cassia Eller/Por Enquanto
TTITLE3=Daniela Mercury/A Primeira Vista
TTITLE4=Adriana Calcanhotto/Mais Feliz
TTITLE5=Maria Rita/Encontros E Despedidas
TTITLE6=Ivete Sangalo/Fullgas
TTITLE7=Fernanda Porto/So Tinha de ser com voce
TTITLE8=Marisa Monte/Give me love
TTITLE9=Cassia Eller/Malandragem
TTITLE10=Ivete Sangalo/Eva
TTITLE11=Daniela Mercury/Nobre Vagabundo
TTITLE12=Elis Regina/Aguas de Março
TTITLE13=Adriana Calcanhotto/Formiga Bossa Nova
TTITLE14=Fernanda Porto/Sambassim
TTITLE15=Maria Rita/A Festa
TTITLE16=Clara Nunes con Martino da Vila/Peixe con coco
TTITLE17=Rosa Passos/A Paz
TTITLE18=Rita Lee con Milton Nascimento/Mania de voce
TTITLE19=Gal Costa/Begin the Beguine
EXTD=YEAR: 2005
EXTT0=
EXTT1=
EXTT2=
EXTT3=
EXTT4=
EXTT5=
EXTT6=
EXTT7=
EXTT8=
EXTT9=
EXTT10=
EXTT11=
EXTT12=
EXTT13=
EXTT14=
EXTT15=
EXTT16=
EXTT17=
EXTT18=
EXTT19=
PLAYORDER=
